#N canvas 0 23 1199 755 12;
#X obj 117 633 *~, f 4;
#X obj 116 323 +~;
#X obj 81 176 noise~;
#X obj 113 349 phasor~ 110;
#X obj 118 401 -~ 0.5;
#X obj 116 441 abs~;
#X obj 113 512 -~ 1;
#X obj 111 559 bob~, f 84;
#X obj 111 476 *~ 4;
#X obj 177 276 osc~ 220;
#X obj 131 107 mtof;
#X obj 132 155 sig~;
#X obj 185 159 *~ 2;
#X obj 174 127 *~ 2;
#X obj 110 278 +~;
#X obj 177 304 *~;
#X obj 359 158 line~;
#X obj 359 183 pow~ 2;
#X obj 354 231 *~ 10000;
#X obj 435 114 delay 10;
#X msg 358 115 0.99 10;
#X msg 435 142 0 150;
#X obj 113 674 dac~ 1 2;
#X text 177 409 WaveShaping - unipolar Ramp to bipolar Triangle;
#X text 249 232 FM Ratio;
#X obj 356 74 bng 15 250 50 0 empty empty empty 17 7 0 10 -262144 -1
-1;
#X text 430 185 Exponential Envelope for Amp + Filter Cutoff \, making
it LPG like;
#X obj 81 210 pow~ 2;
#X obj 88 233 *~ 1.1;
#X floatatom 133 68 5 0 0 0 - - -;
#X text 744 558 Buchla Bongo Adjacent Demo;
#X text 180 66 Frequency Via Midi;
#X text 744 569 Kasey Pocius - IDMIL - CIRMMT McGill University 2022
;
#X connect 0 0 22 0;
#X connect 0 0 22 1;
#X connect 1 0 3 0;
#X connect 2 0 27 0;
#X connect 3 0 4 0;
#X connect 4 0 5 0;
#X connect 5 0 8 0;
#X connect 6 0 7 0;
#X connect 7 0 0 0;
#X connect 8 0 6 0;
#X connect 9 0 15 0;
#X connect 10 0 11 0;
#X connect 10 0 13 0;
#X connect 11 0 14 1;
#X connect 12 0 15 1;
#X connect 13 0 12 0;
#X connect 13 0 9 0;
#X connect 14 0 1 0;
#X connect 15 0 1 1;
#X connect 16 0 17 0;
#X connect 17 0 18 0;
#X connect 17 0 0 1;
#X connect 18 0 7 1;
#X connect 19 0 21 0;
#X connect 20 0 16 0;
#X connect 21 0 16 0;
#X connect 25 0 19 0;
#X connect 25 0 20 0;
#X connect 27 0 28 0;
#X connect 28 0 14 0;
#X connect 29 0 10 0;
